<?xml version="1.0" encoding="iso-8859-1"?>
<!-- Generator: Adobe Illustrator 19.0.0, SVG Export Plug-In . SVG Version: 6.00 Build 0)  -->
<svg xmlns="http://www.w3.org/2000/svg" xmlns:xlink="http://www.w3.org/1999/xlink" version="1.1" id="Layer_1" x="0px" y="0px" viewBox="0 0 512.001 512.001" style="enable-background:new 0 0 512.001 512.001;" xml:space="preserve" width="512px" height="512px">
<g>
	<g>
		<path d="M495.302,178.091c-9.22,0-16.695,7.475-16.695,16.695v16.695h-44.521v-16.695c0-27.618-22.469-50.086-50.086-50.086    c-12.819,0-24.522,4.846-33.391,12.794c-8.869-7.949-20.572-12.794-33.391-12.794s-24.522,4.846-33.391,12.794    c-8.869-7.949-20.572-12.794-33.391-12.794c-12.819,0-24.522,4.846-33.391,12.794c-8.869-7.949-20.572-12.794-33.391-12.794    s-24.522,4.846-33.391,12.794c-8.869-7.949-20.572-12.794-33.391-12.794c-27.618,0-50.086,22.469-50.086,50.086v16.695H16.699    c-9.22,0-16.695,7.475-16.695,16.695v66.782c0,9.22,7.475,16.695,16.695,16.695h50.086v50.086v33.391v83.477H50.09    c-9.22,0-16.695,7.475-16.695,16.695c0,9.22,7.475,16.695,16.695,16.695h72.347c9.22,0,16.695-7.475,16.695-16.695    c0-9.22-7.475-16.695-16.695-16.695h-22.261v-36.263c5.226,1.853,10.843,2.872,16.695,2.872c12.819,0,24.522-4.846,33.391-12.794    c8.869,7.949,20.572,12.794,33.391,12.794s24.522-4.846,33.391-12.794c8.869,7.949,20.572,12.794,33.391,12.794    c12.819,0,24.522-4.846,33.391-12.794c8.869,7.949,20.572,12.794,33.391,12.794s24.522-4.846,33.391-12.794    c8.869,7.949,20.572,12.794,33.391,12.794c5.852,0,11.47-1.018,16.695-2.872v36.263h-16.695c-9.22,0-16.695,7.475-16.695,16.695    c0,9.22,7.475,16.695,16.695,16.695h72.347c9.22,0,16.695-7.475,16.695-16.695c0-9.22-7.475-16.695-16.695-16.695h-22.261v-83.477    v-33.391v-50.086h44.521v16.695c0,9.22,7.475,16.695,16.695,16.695s16.695-7.475,16.695-16.695V294.96v-66.782v-33.391    C511.998,185.566,504.522,178.091,495.302,178.091z M66.784,278.264H33.393v-33.391h33.391V278.264z M133.566,395.132    c0,9.206-7.49,16.695-16.695,16.695c-9.206,0-16.695-7.49-16.695-16.695v-33.391V194.787c0-9.206,7.49-16.695,16.695-16.695    c9.206,0,16.695,7.49,16.695,16.695V395.132z M200.348,395.132c0,9.206-7.49,16.695-16.695,16.695s-16.695-7.49-16.695-16.695    V194.787c0-9.206,7.49-16.695,16.695-16.695s16.695,7.49,16.695,16.695V395.132z M267.13,395.132    c0,9.206-7.49,16.695-16.695,16.695s-16.695-7.49-16.695-16.695V194.787c0-9.206,7.49-16.695,16.695-16.695    s16.695,7.49,16.695,16.695V395.132z M333.913,395.132c0,9.206-7.49,16.695-16.695,16.695s-16.695-7.49-16.695-16.695V194.787    c0-9.206,7.49-16.695,16.695-16.695s16.695,7.49,16.695,16.695V395.132z M400.694,361.742v33.391    c0,9.206-7.49,16.695-16.695,16.695s-16.695-7.49-16.695-16.695V194.787c0-9.206,7.49-16.695,16.695-16.695    s16.695,7.49,16.695,16.695V361.742z M478.607,278.264h-44.521v-33.391h44.521V278.264z" fill="#FC8816"/>
	</g>
</g>
<g>
	<g>
		<path d="M200.348,33.396c0-18.593-20.336-29.144-26.569-31.933c-8.417-3.765-18.325-0.016-22.094,8.4    c-3.768,8.417-0.033,18.278,8.382,22.046c0.893,0.41,1.862,0.928,2.809,1.49c-3.145,1.865-29.311,12.045-29.311,33.389    c0,18.593,20.336,29.144,26.569,31.933c8.419,3.769,18.327,0.012,22.094-8.4c3.768-8.417,0.033-18.278-8.382-22.046    c-0.893-0.41-1.862-0.928-2.809-1.49C174.184,64.919,200.348,54.74,200.348,33.396z" fill="#FC8816"/>
	</g>
</g>
<g>
	<g>
		<path d="M289.39,33.396c0-18.593-20.336-29.144-26.569-31.933c-8.416-3.765-18.326-0.016-22.094,8.4    c-3.768,8.417-0.033,18.278,8.382,22.046c0.893,0.41,1.862,0.928,2.809,1.49c-3.145,1.865-29.311,12.045-29.311,33.389    c0,18.593,20.336,29.144,26.569,31.933c8.419,3.769,18.327,0.012,22.094-8.4c3.768-8.417,0.033-18.278-8.382-22.046    c-0.893-0.41-1.862-0.928-2.809-1.49c0.929-0.551,1.877-1.057,2.741-1.456C269.054,62.539,289.39,51.989,289.39,33.396z" fill="#FC8816"/>
	</g>
</g>
<g>
	<g>
		<path d="M378.434,33.396c0-18.593-20.336-29.144-26.569-31.933c-8.414-3.765-18.325-0.016-22.094,8.4    c-3.768,8.417-0.033,18.278,8.382,22.046c0.893,0.41,1.862,0.928,2.809,1.49c-3.146,1.865-29.311,12.045-29.311,33.389    c0,18.593,20.336,29.144,26.569,31.933c8.419,3.769,18.327,0.012,22.094-8.4c3.768-8.417,0.033-18.278-8.382-22.046    c-0.893-0.41-1.862-0.928-2.809-1.49C352.27,64.919,378.434,54.74,378.434,33.396z" fill="#FC8816"/>
	</g>
</g>
<g>
</g>
<g>
</g>
<g>
</g>
<g>
</g>
<g>
</g>
<g>
</g>
<g>
</g>
<g>
</g>
<g>
</g>
<g>
</g>
<g>
</g>
<g>
</g>
<g>
</g>
<g>
</g>
<g>
</g>
</svg>
