<?xml version="1.0" encoding="iso-8859-1"?>
<!DOCTYPE svg PUBLIC "-//W3C//DTD SVG 1.1//EN" "http://www.w3.org/Graphics/SVG/1.1/DTD/svg11.dtd">
<svg xmlns="http://www.w3.org/2000/svg" xmlns:xlink="http://www.w3.org/1999/xlink" version="1.1" viewBox="0 0 315 315" enable-background="new 0 0 315 315" width="512px" height="512px">
  <g>
    <path d="m312.875,113.794c-2.775-2.692-7.207-2.624-9.898,0.148-4.592,4.732-8.612,7.13-11.953,7.13-0.063,0-0.126-0.001-0.188-0.003-5.522-0.15-11.663-7.207-17.602-14.032-8.186-9.407-17.463-20.069-30.855-20.434-0.232-0.006-0.463-0.009-0.695-0.009-7.837,0-15.751,3.614-24.047,10.977-5.547-3.809-12.098-6.034-19.842-6.034h-68.908c-12.071,0-24.03,2.996-35.495,8.024l-3.227-4.407c-2.5-3.416-6.182-5.653-10.365-6.3-4.18-0.647-8.368,0.373-11.785,2.875l-23.823,17.445c-7.051,5.161-8.588,15.097-3.425,22.149l2.981,4.071c-20.277,20.719-34.794,44.058-39.002,58.689-0.608,2.113-0.187,4.389 1.136,6.145 1.322,1.756 3.394,2.789 5.592,2.789h229.448c0.007,0.001 0.015,0 0.02,0 3.866,0 7-3.134 7-7 0-0.182-0.007-0.362-0.021-0.541-0.038-18.032-2.059-63.719-20.266-88.077 5.389-4.622 10.196-6.911 14.344-6.803 7.245,0.197 14.071,8.042 20.673,15.629 7.922,9.104 16.114,18.52 27.782,18.837 0.198,0.005 0.396,0.008 0.593,0.008 7.354,0 14.551-3.729 21.976-11.38 2.693-2.772 2.626-7.204-0.148-9.896zm-260.412,6.677l23.823-17.445c0.511-0.375 1.028-0.387 1.375-0.336 0.345,0.054 0.835,0.225 1.209,0.735l1.888,2.578c-9.484,5.513-18.495,12.266-26.793,19.647l-1.901-2.597c-0.602-0.822-0.424-1.98 0.399-2.582zm-30.714,68.549c6.311-13.106 19.014-31.274 35.731-47.485 13.864-13.443 41.577-35.997 71.407-35.997h68.908c13.083,0 22.928,11.304 29.262,33.597 5.039,17.737 6.423,37.741 6.764,49.886h-212.072z" fill="#FC8816"/>
    <path d="m240.923,214.405h-233.923c-3.866,0-7,3.134-7,7s3.134,7 7,7h233.923c3.866,0 7-3.134 7-7s-3.134-7-7-7z" fill="#FC8816"/>
    <path d="m189.042,123.61h-54.912c-23.277,0-43.673,27.257-46.878,38.401-0.607,2.113-0.187,4.389 1.136,6.145 1.322,1.756 3.394,2.789 5.592,2.789h109.81c0.007,0.001 0.015,0.001 0.02,0 3.866,0 7-3.134 7-7 0-0.185-0.007-0.368-0.021-0.549-0.112-25.294-8.024-39.786-21.747-39.786zm-83.376,33.336c6.537-8.896 18.117-19.336 28.464-19.336h54.912c3.56,0 6.566,8.201 7.471,19.336h-90.847z" fill="#FC8816"/>
  </g>
</svg>
