<?xml version="1.0" encoding="iso-8859-1"?>
<!-- Generator: Adobe Illustrator 19.0.0, SVG Export Plug-In . SVG Version: 6.00 Build 0)  -->
<svg xmlns="http://www.w3.org/2000/svg" xmlns:xlink="http://www.w3.org/1999/xlink" version="1.1" id="Layer_1" x="0px" y="0px" viewBox="0 0 512 512" style="enable-background:new 0 0 512 512;" xml:space="preserve" width="512px" height="512px">
<g>
	<g>
		<path d="M459.798,50.017C455.856,21.795,431.575,0,402.286,0H98.958C68.057,0,44.953,20.598,41.373,50.017H0.538v68.303h40.336    V512h319.462V351.731H460.37V118.319h51.092V50.017H459.798z M98.958,16.134c20.371,0,37.391,14.598,41.163,33.882H57.667    C61.013,29.712,77.05,16.134,98.958,16.134z M16.672,102.185V66.151h124.235v36.034H16.672z M344.202,495.866H57.008V465.21    h287.193V495.866z M344.202,416.807h-4.84v16.134h4.84v16.134H57.008v-16.134h8.067v-16.134h-8.067v-16.134h287.193V416.807z     M344.202,384.538H57.008V118.319h83.899v233.412h203.294V384.538z M444.235,335.597H157.042v-33.345h287.193V335.597z     M444.235,253.849h-4.84v16.134h4.84v16.134H157.042v-16.134h8.067v-16.134h-8.067v-16.134h287.193V253.849z M444.235,118.318    V221.58H157.042v-103.26V58.084v-8.067h-0.572c-0.042-0.296-0.074-0.595-0.119-0.888c-0.068-0.433-0.154-0.862-0.231-1.292    c-0.096-0.535-0.185-1.072-0.295-1.603c-0.092-0.443-0.203-0.88-0.305-1.32c-0.118-0.509-0.231-1.02-0.362-1.524    c-0.116-0.445-0.251-0.884-0.378-1.325c-0.141-0.488-0.275-0.979-0.429-1.463c-0.141-0.444-0.297-0.882-0.449-1.322    c-0.161-0.47-0.318-0.941-0.492-1.406c-0.163-0.44-0.342-0.873-0.516-1.309c-0.182-0.454-0.36-0.91-0.553-1.359    c-0.186-0.434-0.386-0.859-0.583-1.288c-0.201-0.438-0.4-0.878-0.612-1.31c-0.209-0.425-0.429-0.842-0.648-1.262    c-0.222-0.425-0.441-0.851-0.672-1.269c-0.228-0.413-0.467-0.819-0.706-1.224c-0.241-0.413-0.482-0.825-0.733-1.232    c-0.247-0.4-0.504-0.793-0.76-1.185c-0.261-0.4-0.523-0.8-0.793-1.193c-0.266-0.386-0.539-0.765-0.813-1.143    c-0.281-0.387-0.562-0.773-0.851-1.153c-0.283-0.371-0.572-0.735-0.864-1.099c-0.299-0.374-0.6-0.747-0.909-1.112    c-0.299-0.355-0.603-0.703-0.91-1.051c-0.319-0.361-0.64-0.72-0.968-1.073c-0.313-0.337-0.63-0.668-0.951-0.997    c-0.339-0.349-0.68-0.693-1.027-1.033c-0.151-0.147-0.294-0.302-0.446-0.449h263.191c23.131,0,41.95,18.818,41.95,41.95V118.318z     M495.328,102.185H460.37V66.151h34.958V102.185z" fill="#FC8816"/>
	</g>
</g>
<g>
	<g>
		<rect x="374.857" y="253.849" width="16.134" height="16.134" fill="#FC8816"/>
	</g>
</g>
<g>
	<g>
		<rect x="342.588" y="253.849" width="16.134" height="16.134" fill="#FC8816"/>
	</g>
</g>
<g>
	<g>
		<rect x="278.05" y="253.849" width="16.134" height="16.134" fill="#FC8816"/>
	</g>
</g>
<g>
	<g>
		<rect x="310.319" y="253.849" width="16.134" height="16.134" fill="#FC8816"/>
	</g>
</g>
<g>
	<g>
		<rect x="213.513" y="253.849" width="16.134" height="16.134" fill="#FC8816"/>
	</g>
</g>
<g>
	<g>
		<rect x="245.782" y="253.849" width="16.134" height="16.134" fill="#FC8816"/>
	</g>
</g>
<g>
	<g>
		<rect x="407.126" y="253.849" width="16.134" height="16.134" fill="#FC8816"/>
	</g>
</g>
<g>
	<g>
		<rect x="181.244" y="253.849" width="16.134" height="16.134" fill="#FC8816"/>
	</g>
</g>
<g>
	<g>
		<rect x="274.824" y="416.807" width="16.134" height="16.134" fill="#FC8816"/>
	</g>
</g>
<g>
	<g>
		<rect x="81.21" y="416.807" width="16.134" height="16.134" fill="#FC8816"/>
	</g>
</g>
<g>
	<g>
		<rect x="242.555" y="416.807" width="16.134" height="16.134" fill="#FC8816"/>
	</g>
</g>
<g>
	<g>
		<rect x="307.092" y="416.807" width="16.134" height="16.134" fill="#FC8816"/>
	</g>
</g>
<g>
	<g>
		<rect x="210.286" y="416.807" width="16.134" height="16.134" fill="#FC8816"/>
	</g>
</g>
<g>
	<g>
		<rect x="113.479" y="416.807" width="16.134" height="16.134" fill="#FC8816"/>
	</g>
</g>
<g>
	<g>
		<rect x="145.748" y="416.807" width="16.134" height="16.134" fill="#FC8816"/>
	</g>
</g>
<g>
	<g>
		<rect x="178.017" y="416.807" width="16.134" height="16.134" fill="#FC8816"/>
	</g>
</g>
<g>
</g>
<g>
</g>
<g>
</g>
<g>
</g>
<g>
</g>
<g>
</g>
<g>
</g>
<g>
</g>
<g>
</g>
<g>
</g>
<g>
</g>
<g>
</g>
<g>
</g>
<g>
</g>
<g>
</g>
</svg>
