<?xml version="1.0" encoding="iso-8859-1"?>
<!-- Generator: Adobe Illustrator 19.0.0, SVG Export Plug-In . SVG Version: 6.00 Build 0)  -->
<svg xmlns="http://www.w3.org/2000/svg" xmlns:xlink="http://www.w3.org/1999/xlink" version="1.1" id="Layer_1" x="0px" y="0px" viewBox="0 0 512 512" style="enable-background:new 0 0 512 512;" xml:space="preserve" width="512px" height="512px">
<g>
	<g>
		<path d="M35.874,127.262V512h440.252V127.262H35.874z M256,479.551c-88.18,0-159.92-71.74-159.92-159.919    c0-88.181,71.74-159.92,159.92-159.92c88.179,0,159.919,71.74,159.919,159.92C415.919,407.811,344.179,479.551,256,479.551z" fill="#FC8816"/>
	</g>
</g>
<g>
	<g>
		<path d="M256,247.381c-39.838,0-72.249,32.411-72.249,72.25c-0.001,39.838,32.41,72.249,72.249,72.249    s72.249-32.411,72.249-72.249C328.249,279.792,295.838,247.381,256,247.381z" fill="#FC8816"/>
	</g>
</g>
<g>
	<g>
		<path d="M256,190.129c-71.408,0-129.503,58.095-129.503,129.503c0,71.407,58.095,129.502,129.503,129.502    c71.407,0,129.502-58.095,129.502-129.502C385.502,248.223,327.407,190.129,256,190.129z M256,422.298    c-56.61,0-102.667-46.056-102.667-102.666c0-56.611,46.057-102.667,102.667-102.667s102.666,46.056,102.666,102.667    C358.666,376.242,312.61,422.298,256,422.298z" fill="#FC8816"/>
	</g>
</g>
<g>
	<g>
		<path d="M35.874,0v96.845h440.252V0H35.874z M144.47,63.591h-30.417V33.253h30.417V63.591z M195.166,63.591h-30.417V33.253h30.417    V63.591z M245.861,63.591h-30.417V33.253h30.417V63.591z M296.556,63.591h-30.417V33.253h30.417V63.591z M347.252,63.591h-30.417    V33.253h30.417V63.591z M397.947,63.591H367.53V33.253h30.417V63.591z" fill="#FC8816"/>
	</g>
</g>
<g>
</g>
<g>
</g>
<g>
</g>
<g>
</g>
<g>
</g>
<g>
</g>
<g>
</g>
<g>
</g>
<g>
</g>
<g>
</g>
<g>
</g>
<g>
</g>
<g>
</g>
<g>
</g>
<g>
</g>
</svg>
